<svg version="1" xmlns="http://www.w3.org/2000/svg" width="586.667" height="586.667" viewBox="0 0 440.000000 440.000000"><path d="M254.4 1C235 5.1 221.6 24.5 225 43.7c1.1 6.6 3.5 12.4 7.3 17.4l2 2.7-3.7 16.4c-7.8 34.3-7.6 33.8-9.7 33.8-1 0-1.9-.1-2-.3 0-.1-.8-5.8-1.8-12.7l-1.7-12.5 3-5.8c7.1-13.8 1.5-29.7-12.9-36.3-17.3-8.1-37.5 5.3-37.5 24.8 0 4.9 3.3 13.4 6.5 16.8 2.2 2.3 2.8 4.4 4.5 17 1.1 7.9 2 14.9 2 15.4 0 .6-2.1 1.9-4.6 3-3.9 1.6-4.8 1.7-5.9.5-.8-.8-7.9-9.7-15.8-19.8-14.3-18.3-14.4-18.5-13.5-22 1.7-6.1.5-17.9-2.5-24.4-3.3-7.2-10.6-14.5-18.2-18.3-5.4-2.6-7-2.9-15.5-2.9-6.9 0-10.7.5-14 1.8C65.9 48.6 59 81.1 78 100c5.6 5.7 14.5 10.1 21.9 10.7l5.6.6 16.4 20.9c9.2 11.8 16 21.3 15.5 21.8s-2.8-.5-5.2-2.4c-3.3-2.4-4.8-4.5-6.2-8.5-5.3-15.8-22.4-23.1-37.2-15.8-12.2 6-17.9 20.3-13.3 33.2.8 2.1 1.3 4.1 1.1 4.2-1 1-3.5-1.3-5.3-5-3.6-7.3-8.9-12.4-16.9-16.3-6.7-3.4-8.3-3.8-15.7-3.8C25 139.5 14.3 145 6.8 156c-13.6 19.9-4.8 47.3 17.9 56 10.8 4.2 24 2.7 33.7-3.6 2.6-1.8 4.5-2.4 6.3-1.9l2.4.6-3.2 3.6C59 216.3 57 221.6 57 229c0 14.9 11.6 26.8 26.4 27.1 4 .1 4 .1-5.3 4.6l-9.4 4.5-6.9-2.3c-17.9-5.7-37 2.8-45.2 20.1-2.8 5.9-3.1 7.4-3.1 16 0 8.1.4 10.3 2.6 15 3.9 8.1 9.9 14.4 17.7 18.2 6.2 3.1 7.4 3.3 16.7 3.3 8.7 0 10.7-.3 15.6-2.6 10.3-4.8 16.5-11.9 20.4-23.3l2.1-6 22.9-10.8 22.9-10.8 3.8 4.2c2 2.4 3.7 4.5 3.7 4.8 0 .3-4.2 6.1-9.2 12.9-7.1 9.7-10.2 13-13.7 14.8-9.9 5.3-15 13.5-15 24.4 0 12.2 7.5 22 19.7 25.5 6.7 1.9 11.7 1.4 19-2.2 9.1-4.4 14.3-13.3 14.3-24.7 0-5.8.2-6.2 7.3-16 3.9-5.6 7.5-10.6 7.9-11.1.5-.8 1.1-.7 1.8 0 .8.8-.5 8-4.5 25.7-3 13.5-5.5 24.8-5.5 25.1 0 .3-2.2 1.7-5 3.1-26.1 13.2-27.9 49.5-3.2 65.4 13.4 8.6 31.1 7.4 44.1-2.9 14.1-11.1 17.6-34 7.7-49.1l-2.4-3.5 6-26.5c3.3-14.5 6.1-26.6 6.3-26.8.2-.2 1-.1 1.8.2.9.3 1.9 4.9 3 13.8l1.7 13.4-2.5 4.9c-4.7 9.2-3.1 21.4 3.8 29.2 4.9 5.6 10.5 8.5 17.6 9.1 10.7 1 19.7-3.7 25.6-13.2 2.7-4.3 3-5.7 3-12.9 0-8.8-1.4-12.6-6.5-18.1-2.5-2.7-3-4.3-4.4-15-.9-6.6-1.8-13.4-2.1-15.1-.5-2.9-.3-3.2 4.4-5.2l4.9-2 15.8 20 15.7 20.1.1 10.1c.1 8.7.5 10.9 2.8 15.8 14.4 30.9 57.9 29.7 69.8-1.9 1.8-4.8 2.1-7.4 1.8-14.8-.3-7.9-.8-9.8-3.7-15.3-6.3-11.6-17.4-19.1-30.3-20.1l-6.6-.6-15.6-19.9c-8.6-10.9-15.6-20.3-15.6-20.8s2.1.7 4.7 2.7c3.4 2.6 5.3 5 6.5 8.3 5.7 15.2 22.5 22 37 14.9 10.4-5.1 15.6-14.5 14.5-26.1-.3-3.3-.9-7.1-1.2-8.3-1.1-3.5 3.1-1.8 4.6 1.9.7 1.6 3.4 5.2 6 7.9 17.9 18.4 48.8 13.7 60.2-9.1 9.8-19.5 2.6-41-17-50.7-7-3.4-8.2-3.7-16.2-3.7-7.2 0-9.6.4-14.3 2.6-3.2 1.5-7.3 3.8-9.1 5.2-4.7 3.6-5.4 2.1-1.2-2.5 4.9-5.4 6.7-10.3 6.7-17.9.1-8.3-2.8-14.6-9-20-10.1-9-25.8-8.8-35.5.4-2.1 1.9-4.5 2.9-8.8 3.5-3.3.4-6.2.4-6.5 0-.6-1 1-1.8 26-13.6l20-9.4 5.1 2.3c7 3.1 19.6 3.1 27.8-.1 8.1-3.2 16.6-11.3 20.3-19.3 2.6-5.6 2.9-7.4 2.9-15.8 0-8.2-.4-10.3-2.7-15.2-7.2-15.4-22.9-23.9-40-21.6-7.4 1-13.7 4-19.8 9.5-4.7 4.3-11 14.7-11 18.3 0 1-.6 2.2-1.2 2.7-1.2.9-43.3 20.8-45.5 21.5-.5.2-2.3-1.3-4.1-3.3l-3.1-3.6 8.3-11.4c7.3-10 8.9-11.7 13.8-14 6.4-3.2 13-10.1 14.6-15.7 5.5-18.4-6.7-35.5-25.3-35.4-7.5.1-11.9 1.8-17.5 6.8-5.7 5.2-8.2 10.5-8.8 18.8-.5 6.8-.7 7.2-7.9 17-7.2 9.9-9.9 12.1-9.7 8.1 0-1.1 2.5-12.7 5.5-25.8l5.3-23.9 3.9-2c12.5-6.3 21-22.9 19.1-37.4-.9-7.4-6.4-18.2-11.5-22.9-8.7-7.8-22.8-11.8-33.5-9.5zm13.1 18.5c7.6 1.7 13.5 9.8 13.5 18.5 0 8.6-4.7 15.3-12.6 18.2-1.9.6-3.6 1.9-3.8 2.7-.3.9-4.6 19.8-9.7 42-7.5 32.7-9 40.6-7.8 41 .8.2 5.5 2.5 10.4 5l9 4.6 15.8-22.9 15.9-23-1.2-4.2c-1-3.6-.9-4.8.8-8.6 2-4.7 6.6-7.8 11.4-7.8 5.9 0 12.8 6.9 12.8 12.8 0 5.5-5.5 11.6-11.6 12.8-3.1.6-4.8 2.6-19.5 24.1l-16.1 23.4 4.9 5.2c2.7 2.9 6.4 7.4 8.3 10.2 1.8 2.7 3.4 5.1 3.5 5.2.1.2 17.4-7.9 38.5-18l38.3-18.2 1.4-5.4c1.7-6.9 5.1-11.3 10.6-14 5.1-2.5 10.4-2.7 15.5-.6 16.2 6.8 16.2 29.2 0 36-5.4 2.2-10.6 1.9-16.3-1l-5-2.6-37.9 18.1c-20.9 9.9-38.1 18.2-38.3 18.4-.3.3.5 4.2 1.6 8.7 1.2 4.6 2.1 9.8 2.1 11.7 0 3.2.2 3.4 2.8 2.9 1.5-.3 10.7-1.6 20.6-2.8l17.8-2.4 1.8-3.6c2.4-4.7 6.5-7.2 11.5-7.2 13.3 0 17.4 17.7 5.5 23.8-4 2.1-7.6 1.9-12-.6l-3.8-2.1-19.8 2.6c-26.1 3.5-24.4 3-24.4 7v3.3l41.3 9.5 41.2 9.5 3.8-3.4c4.8-4.3 7.5-5.3 14.1-5.3 17.6 0 25.5 23.7 11.4 34.3-10.7 8.1-25 4-30.3-8.6-.8-2-1.8-3.7-2.1-3.7-.6 0-79.1-17.9-81.5-18.6-1.2-.3-2 .5-2.7 2.5l-1.1 3 18.2 12.2c17.3 11.7 18.4 12.3 23.4 12.4 8.5.1 13.3 4.9 13.3 13.3 0 3.7-.6 5-3.3 7.7-8.4 8.4-21.6 3-21.7-9v-4l-16.6-11c-9.2-6.1-17-11.1-17.4-11.3-.5-.2-2.3 1.9-4.1 4.5-1.8 2.6-5.1 6.7-7.2 9-2.7 2.9-3.6 4.6-3 5.6.4.8 12.5 15.9 26.8 33.5l25.9 32.2 3.6-.6c2-.3 5.5-.1 7.7.5 16.1 4.3 19.4 25.6 5.5 35.1-4.9 3.4-13.5 3.9-18.9 1.2-9.3-4.8-13.5-15-9.8-23.8l1.4-3.5-27-33.5C278 304 265.5 289 265.2 289.2c-.4.2-3.8 1.9-7.7 3.9-3.8 2-8.8 4.2-11 4.9-2.2.7-4.3 1.5-4.6 1.9-.4.3 1.2 13.1 3.5 28.5 4.1 27 4.3 27.9 7 29.8 8.2 6 7 18.6-2.1 22.4-9.6 4.1-19.5-4.7-16.9-15 .3-1.3 1.8-3.8 3.2-5.5l2.5-3-4-26.6c-2.3-14.6-4.1-27-4.1-27.5 0-.6-4.9-1-12-1-6.6 0-12 .2-12 .4s-4.3 18.9-9.5 41.5l-9.4 41.2 2.9 4c6 8.4 6.3 16.4.9 23.9-7.7 10.6-22.5 10.5-31.2-.2-7.9-9.8-2.2-26.4 10.1-29.7l3.8-1.1 9.3-40.7c5.2-22.5 9.5-41.3 9.7-41.8.2-.6-4.4-3.3-10.1-6.1l-10.4-5-16.1 23.3-16.1 23.3 1.2 3.9c2.2 7.5-4.3 16.1-12.3 16.1-5.9 0-12.8-6.9-12.8-12.8 0-5.7 5.7-11.8 11.9-12.8 3.4-.6 4.5-1.9 19.8-24.2l16.2-23.5-4.9-5.4c-2.7-2.9-6.3-7.6-8.1-10.3-1.8-2.8-3.7-5-4.3-5-2.2 0-77.6 36.4-77.6 37.4 0 3.3-2.5 9.1-5.3 12.3-4 4.5-8.2 6.3-15 6.3-18.7 0-25.7-25-9.8-35.2 4.1-2.7 5.3-2.9 11.3-2.6 5 .3 7.5.9 9.7 2.6 1.7 1.2 3.4 2.2 3.9 2.2 1.1 0 75.3-34.9 76.5-36 .4-.4-.2-4.4-1.3-9.1-1.1-4.6-2-9.7-2-11.2 0-2.8-.2-2.9-3.7-2.3-2.1.3-10.8 1.5-19.3 2.6-20.2 2.7-19.5 2.5-21 6-1.8 4.4-6.4 7.3-11.4 7.3-13.4 0-17.5-17.6-5.6-23.8 4-2.1 7.6-1.9 12.1.7l3.8 2.1 20.8-2.7c11.4-1.5 21.5-3 22.4-3.2.9-.3 1.9-1.8 2.1-3.5.4-2.4.1-3-1.6-3.4C117 202.9 55.8 189 55.1 189c-.6 0-3 1.4-5.5 3.1-10 7.1-23.4 4.1-28.7-6.3-4-7.9-2.3-17.4 4.1-23.2 6.3-5.7 14.7-6.9 22.1-3 3.9 1.9 8.8 8.3 9.5 12.1.4 2.3 1.3 3.5 2.8 3.8 21.1 5 80.3 18.5 81.1 18.5 1.5 0 3.8-5.1 2.8-6-.4-.4-8.7-6-18.3-12.5-16.6-11.1-17.7-11.7-22.2-11.6-9.1.4-14.5-5.1-13.5-13.7.3-3.2 1.3-5.3 3.6-7.6 2.8-2.7 3.8-3.1 8.7-3.1 5.1 0 5.8.3 9 3.7 2.8 3.1 3.4 4.6 3.4 8v4.3l17.4 11.7 17.3 11.7 3.1-4.7c1.7-2.6 4.9-6.8 7.1-9.4 2.3-2.5 4.1-4.8 4.1-5 0-.3-12.1-15.4-26.9-33.7l-26.8-33.3-6-.1c-24.1-.7-25.1-36.6-1-38.4 6.4-.5 12.7 2.4 17.1 8 3.7 4.7 4.8 13.6 2.2 18.7l-1.5 3.2 26.5 32.9c14.6 18.1 26.9 33.1 27.3 33.4.4.2 4.1-1.3 8.2-3.4 4.1-2.2 9.3-4.5 11.7-5.2 2.6-.8 4.2-1.8 4.2-2.8 0-.9-1.9-13.9-4.2-29l-4.1-27.4-3.6-3.3c-3.3-3-3.6-3.7-3.6-8.9 0-5.3.3-5.9 3.7-9.1 3.1-2.8 4.6-3.4 8-3.4 7.5 0 12.7 5 12.8 12.3 0 4.4-1.3 7.4-4.4 10.2l-2.3 2 4.3 27.5c2.3 15.1 4.3 27.6 4.3 27.8.1.1 5.4.1 11.8 0l11.7-.3 9.4-41.2 9.4-41.2-3.5-4.2c-7.1-8.2-6.7-18.9.8-26.5 4.1-4.1 10.4-6.7 14.5-5.9.8.2 2.9.6 4.5 1zM115 242.1c1.1.6-.1 1.5-4.5 3.4-3.3 1.5-6.8 3.1-7.7 3.6-1 .5-.1-1.2 1.9-4 3.9-5.2 5.4-5.6 10.3-3z"/><path d="M169 171.7c0 .4 8.6 25.7 19.1 56l19.2 55.3h25.2l19.3-55.3c10.6-30.3 19.2-55.6 19.2-56 0-.4-6-.6-13.2-.5l-13.3.3-12 39.7c-6.6 21.8-12.2 39.9-12.5 40.2-.3.3-6-17.6-12.6-39.7l-12-40.2-13.2-.3c-7.3-.1-13.2.1-13.2.5z"/></svg>