<svg version="1" xmlns="http://www.w3.org/2000/svg" width="341.333" height="341.333" viewBox="0 0 256.000000 256.000000"><path d="M0 128v128h256V0H0v128zm240.5-.5v52h-150l-.3-51c-.1-28.1 0-51.6.3-52.3.3-1 15.9-1.2 75.2-1l74.8.3v52zM56.7 87.1c9.1 2.2 13.4 4.1 16.9 7.7 8.8 9 8.5 29.1-.6 38.2-5.6 5.6-11.3 7-28.2 7H31v28H14v-40.3c0-22.2.3-40.7.7-41 1.1-1.2 37-.8 42 .4z"/><path d="M118.1 90.6c-3 1.3-5.7 2.6-5.9 2.8-.3.3 4.3 10.3 5.3 11.4.1.1 1.8-.5 3.8-1.3 5.7-2.4 12.3-2 15.2 1 5.8 5.8 1.1 15.4-7.7 15.6-8.9.2-8.3-.3-8.6 7l-.3 6.7 8 .3c6.8.4 8.3.8 10.6 2.9 2.2 2 2.5 3.2 2.3 6.9-.4 6.2-3.8 8.6-12.1 8.6-3.5 0-8.1-.8-10.5-1.8L114 149l-1 2.5c-.5 1.4-1.3 3.8-1.6 5.3-.4 1.5-1.2 3-1.8 3.4-.6.4 1.1 1.7 3.9 2.9 6.2 2.8 21.7 3.8 29.4 1.9 10.6-2.5 17.1-10.3 17.2-20.4.1-7.5-2.4-12.2-8.3-15.9l-4.8-3 2.6-1.7c1.4-1 3.8-3.4 5.2-5.5 2.2-3.1 2.7-4.8 2.7-10 0-8.1-3.2-13-11.5-17.4-5.2-2.8-6.6-3.1-14.1-3-6.7 0-9.5.5-13.8 2.5zM181 90.6c-11 5-15.4 11.7-15.4 23.4 0 5.7.5 8.5 2.1 11.6 5.9 11.2 21.3 16.5 32.2 11.1 3-1.5 3.1-1.5 3.1.6-.1 3.5-3.5 10.2-6.4 12.5-3.9 3-10.2 3.7-17.2 1.9-6.7-1.7-6.7-1.7-8.5 5.7-.9 3.9-.9 5 .2 5.7 3 1.9 8.8 2.9 16.9 2.9 7.3 0 9.4-.4 14.5-2.8 3.3-1.6 7.5-4.6 9.4-6.7 4-4.5 7.9-12.5 8.7-17.8.4-2 1.1-4 1.5-4.3.5-.3.9-4.4.9-9.2-.1-9.4-2.1-17.3-6.5-24.7-6.7-11.5-22.3-15.9-35.5-9.9zm19.7 15.3c1.7 2.6 2.3 4.8 2.3 9.2 0 5-.3 6-2.6 7.8-4.1 3.2-9.8 2.8-13.5-.8-2.4-2.5-2.9-3.7-2.9-8.1 0-8.6 3-12.1 10-11.7 3.8.2 4.8.7 6.7 3.6zM31 114v12h25.2l3.4-3.4c3.1-3.1 3.4-4 3.4-9.1 0-4.9-.4-6-2.9-8.6l-2.9-2.9H31v12z"/></svg>